<svg xmlns="http://www.w3.org/2000/svg" width="256" height="96" viewBox="0 0 256 96" fill="none">
<path d="M128 48C128 21.4903 106.51 0 80.0001 0H48C21.4904 0 0 21.4903 0 48C0 74.5097 21.4904 96 48 96H80.0001C106.51 96 128 74.5097 128 48Z" fill="black"/>
<path d="M128 0H232C245.255 0 256 10.7452 256 24C256 37.2548 245.255 48 232 48H176C149.49 48 128 26.5097 128 0Z" fill="black"/>
<path d="M192 96C205.255 96 216 85.2548 216 72C216 58.7452 205.255 48 192 48H176C149.49 48 128 69.4903 128 96H192Z" fill="black"/>
</svg>